<?xml version="1.0" encoding="UTF-8" standalone="no"?>
<!-- Generator: Adobe Illustrator 19.0.0, SVG Export Plug-In . SVG Version: 6.00 Build 0)  -->

<svg
   xmlns:dc="http://purl.org/dc/elements/1.1/"
   xmlns:cc="http://creativecommons.org/ns#"
   xmlns:rdf="http://www.w3.org/1999/02/22-rdf-syntax-ns#"
   xmlns:svg="http://www.w3.org/2000/svg"
   xmlns="http://www.w3.org/2000/svg"
   xmlns:sodipodi="http://sodipodi.sourceforge.net/DTD/sodipodi-0.dtd"
   xmlns:inkscape="http://www.inkscape.org/namespaces/inkscape"
   version="1.1"
   id="Layer_1"
   x="0px"
   y="0px"
   viewBox="0 0 96 96"
   style="enable-background:new 0 0 96 96;"
   xml:space="preserve"
   sodipodi:docname="database.svg"
   inkscape:export-filename="S:\132-PHELIQS\132.05-LATEQS\edumur\scripts\plotter\ui\pictures\database.png"
   inkscape:export-xdpi="96"
   inkscape:export-ydpi="96"
   inkscape:version="0.92.4 (5da689c313, 2019-01-14)"><metadata
   id="metadata11"><rdf:RDF><cc:Work
       rdf:about=""><dc:format>image/svg+xml</dc:format><dc:type
         rdf:resource="http://purl.org/dc/dcmitype/StillImage" /><dc:title></dc:title></cc:Work></rdf:RDF></metadata><defs
   id="defs9" /><sodipodi:namedview
   pagecolor="#ffffff"
   bordercolor="#666666"
   borderopacity="1"
   objecttolerance="10"
   gridtolerance="10"
   guidetolerance="10"
   inkscape:pageopacity="0"
   inkscape:pageshadow="2"
   inkscape:window-width="1920"
   inkscape:window-height="1017"
   id="namedview7"
   showgrid="false"
   inkscape:zoom="5.12"
   inkscape:cx="10.556986"
   inkscape:cy="29.369602"
   inkscape:window-x="1912"
   inkscape:window-y="-8"
   inkscape:window-maximized="1"
   inkscape:current-layer="Layer_1" />
<style
   type="text/css"
   id="style2">
	.st0{fill:#333333;}
</style>

<path
   id="path819"
   d="m 80.47268,22.940921 v 7.532791 c 0,6.638354 -16.532946,12.052556 -36.910886,12.052556 -20.377935,0 -36.9108778,-5.414203 -36.9108778,-12.052557 v -7.53279 c 0,-6.638355 16.5329428,-12.052557 36.9108778,-12.052557 20.37794,0 36.910886,5.414202 36.910886,12.052557 z m 0,16.948856 v 16.94885 c 0,6.638353 -16.532946,12.052553 -36.910886,12.052553 -20.377935,0 -36.9108778,-5.4142 -36.9108778,-12.052553 v -16.94885 c 7.9300688,5.461324 22.4444508,8.003726 36.9108778,8.003726 14.466431,0 28.980647,-2.542402 36.910886,-8.003726 z m 0,26.364916 V 83.20354 c 0,6.638355 -16.532946,12.052558 -36.910886,12.052558 -20.377935,0 -36.9108778,-5.414202 -36.9108778,-12.052558 V 66.254693 c 7.9300688,5.461327 22.4444508,8.003728 36.9108778,8.003728 14.466431,0 28.980647,-2.542401 36.910886,-8.003728 z"
   inkscape:connector-curvature="0"
   style="stroke-width:0.16478074;fill:#b3b3b3;fill-opacity:1" /></svg>