<?xml version="1.0" encoding="UTF-8" standalone="no"?>
<!-- Generator: Adobe Illustrator 19.0.0, SVG Export Plug-In . SVG Version: 6.00 Build 0)  -->

<svg
   xmlns:dc="http://purl.org/dc/elements/1.1/"
   xmlns:cc="http://creativecommons.org/ns#"
   xmlns:rdf="http://www.w3.org/1999/02/22-rdf-syntax-ns#"
   xmlns:svg="http://www.w3.org/2000/svg"
   xmlns="http://www.w3.org/2000/svg"
   xmlns:sodipodi="http://sodipodi.sourceforge.net/DTD/sodipodi-0.dtd"
   xmlns:inkscape="http://www.inkscape.org/namespaces/inkscape"
   version="1.1"
   id="Layer_1"
   x="0px"
   y="0px"
   viewBox="0 0 96 96"
   style="enable-background:new 0 0 96 96;"
   xml:space="preserve"
   sodipodi:docname="fileStared.svg"
   inkscape:export-filename="C:\daimyo\plotter\ui\pictures\fileStared.png"
   inkscape:export-xdpi="96"
   inkscape:export-ydpi="96"
   inkscape:version="0.92.3 (2405546, 2018-03-11)"><metadata
   id="metadata11"><rdf:RDF><cc:Work
       rdf:about=""><dc:format>image/svg+xml</dc:format><dc:type
         rdf:resource="http://purl.org/dc/dcmitype/StillImage" /><dc:title></dc:title></cc:Work></rdf:RDF></metadata><defs
   id="defs9" /><sodipodi:namedview
   pagecolor="#ffffff"
   bordercolor="#666666"
   borderopacity="1"
   objecttolerance="10"
   gridtolerance="10"
   guidetolerance="10"
   inkscape:pageopacity="0"
   inkscape:pageshadow="2"
   inkscape:window-width="1920"
   inkscape:window-height="1001"
   id="namedview7"
   showgrid="false"
   inkscape:zoom="5.12"
   inkscape:cx="29.145233"
   inkscape:cy="67.349986"
   inkscape:window-x="-9"
   inkscape:window-y="-9"
   inkscape:window-maximized="1"
   inkscape:current-layer="Layer_1" />
<style
   type="text/css"
   id="style2">
	.st0{fill:#333333;}
</style>
<g
   id="XMLID_1_"
   style="stroke:#ff0000;fill:#ff0000">
	<path
   id="XMLID_9_"
   class="st0"
   d="M48,34.1H29.4v-4.6H48V34.1z M29.4,48h32.5v-4.6H29.4V48z M29.4,57.3h32.5v-4.6H29.4V57.3z    M29.4,66.6h32.5v-4.6H29.4V66.6z M75.9,31.8v44.1c0,2.6-2.1,4.6-4.6,4.6H24.8c-2.6,0-4.6-2.1-4.6-4.6V20.1c0-2.6,2.1-4.6,4.6-4.6   h34.8L75.9,31.8z M71.2,34.1L57.3,20.1H24.8v55.7h46.4V34.1z"
   style="fill:#ff0000;stroke:#ff0000" />
<path
   inkscape:connector-curvature="0"
   id="XMLID_9_-4"
   class="st0"
   d="M 48,34.1 H 29.4 V 29.5 H 48 Z M 29.4,48 H 61.9 V 43.4 H 29.4 Z m 0,9.3 H 61.9 V 52.7 H 29.4 Z m 0,9.3 H 61.9 V 62 H 29.4 Z"
   style="fill:#ff0000;stroke:#ff0000"
   sodipodi:nodetypes="cccccccccccccccccccc" /></g>
<path
   style="fill:#e6e6e6;stroke-width:0.1953125"
   d="M 24.848358,47.907827 V 20.173451 h 16.163127 16.163127 l 6.981404,6.983426 6.981405,6.983425 v 20.75095 20.75095 H 47.992889 24.848358 Z m 37.109375,16.40625 v -2.34375 H 45.649139 29.340545 v 2.34375 2.34375 h 16.308594 16.308594 z m 0,-9.277344 V 52.595327 H 45.649139 29.340545 v 2.441406 2.441406 h 16.308594 16.308594 z m 0,-9.375 V 43.220327 H 45.649139 29.340545 v 2.441406 2.441406 H 45.649139 61.957733 Z M 48.090545,31.794545 v -2.441406 h -9.375 -9.375 v 2.441406 2.441407 h 9.375 9.375 z"
   id="path3716"
   inkscape:connector-curvature="0" /></svg>