<?xml version="1.0" encoding="UTF-8" standalone="no"?>
<!-- Svg Vector Icons : http://www.onlinewebfonts.com/icon -->

<svg
   xmlns:dc="http://purl.org/dc/elements/1.1/"
   xmlns:cc="http://creativecommons.org/ns#"
   xmlns:rdf="http://www.w3.org/1999/02/22-rdf-syntax-ns#"
   xmlns:svg="http://www.w3.org/2000/svg"
   xmlns="http://www.w3.org/2000/svg"
   xmlns:sodipodi="http://sodipodi.sourceforge.net/DTD/sodipodi-0.dtd"
   xmlns:inkscape="http://www.inkscape.org/namespaces/inkscape"
   version="1.1"
   x="0px"
   y="0px"
   viewBox="0 0 1000 1000"
   enable-background="new 0 0 1000 1000"
   xml:space="preserve"
   id="svg10"
   sodipodi:docname="folderSetup.svg"
   inkscape:version="0.92.4 (5da689c313, 2019-01-14)"
   inkscape:export-filename="S:\132-PHELIQS\132.05-LATEQS\edumur\scripts\plotter\ui\pictures\folderSetup.png"
   inkscape:export-xdpi="9.2159996"
   inkscape:export-ydpi="9.2159996"><defs
   id="defs14" /><sodipodi:namedview
   pagecolor="#ffffff"
   bordercolor="#666666"
   borderopacity="1"
   objecttolerance="10"
   gridtolerance="10"
   guidetolerance="10"
   inkscape:pageopacity="0"
   inkscape:pageshadow="2"
   inkscape:window-width="1920"
   inkscape:window-height="1017"
   id="namedview12"
   showgrid="false"
   inkscape:zoom="0.45254834"
   inkscape:cx="277.83194"
   inkscape:cy="579.58498"
   inkscape:window-x="-8"
   inkscape:window-y="-8"
   inkscape:window-maximized="1"
   inkscape:current-layer="svg10" />
<metadata
   id="metadata2"> Svg Vector Icons : http://www.onlinewebfonts.com/icon <rdf:RDF><cc:Work
     rdf:about=""><dc:format>image/svg+xml</dc:format><dc:type
       rdf:resource="http://purl.org/dc/dcmitype/StillImage" /><dc:title></dc:title></cc:Work></rdf:RDF></metadata>
<g
   id="g8"><g
     transform="translate(0.000000,511.000000) scale(0.100000,-0.100000)"
     id="g6"><path
       d="M846.4,3881.9c-276.5-85.9-547.7-324.9-673.9-598.7l-72.5-153V55.8v-3074.2l75.2-153c96.7-196,319.5-402.7,518.2-475.2c147.7-56.4,150.4-56.4,4341.5-51l4193.9,8l150.3,75.2c179.9,85.9,381.3,292.7,461.8,469.9l59.1,126.2v2523.8v2523.8l-85.9,179.9c-104.7,222.8-290,413.5-502.1,518.2c-206.7,102-418.8,110.1-2352,102c-835-2.7-1562.6,2.7-1616.3,8.1c-56.4,8-102,29.5-102,48.3c0,16.1-42.9,120.8-94,228.2c-112.8,230.9-400.1,537-620.2,652.4c-287.3,153-311.5,155.7-2011,153C1308.2,3919.4,935,3911.4,846.4,3881.9z M4063,3237.5c166.5-59.1,362.5-209.4,451.1-349c40.3-64.4,187.9-443,324.9-837.7c136.9-394.7,265.8-751.8,287.3-792.1c77.9-161.1,21.5-155.7,2048.6-155.7c2037.9,0,1968,5.4,2054-161.1c37.6-69.8,40.3-311.5,34.9-1960l-8-1879.5l-75.2-72.5l-72.5-75.2H5000H892.1l-72.5,75.2l-75.2,72.5L736.3-43.5c-5.4,1568,0,2902.4,8.1,2964.2c18.8,131.6,120.8,268.5,241.6,319.5c64.4,26.9,383.9,34.9,1519.7,37.6C3730,3277.7,3960.9,3272.4,4063,3237.5z M9054.2,2125.9c96.7-51,214.8-236.3,214.8-335.6v-56.4l-1535.8,8.1c-845.8,2.7-1664.7,8.1-1817.7,13.4l-276.5,5.4l-75.2,209.4l-77.9,206.7h1737.2C8863.6,2176.9,8965.6,2174.2,9054.2,2125.9z"
       id="path4"
       style="fill:#000000" /></g></g>
<path
   style="fill:#0000ff;stroke-width:4.237288"
   d="m 81.355932,806.77966 c -3.857734,-3.85775 -5.079667,-76.20034 -5.063699,-299.78813 l 0.02106,-294.70339 10.169526,-12.71187 10.169527,-12.71186 H 250.96375 405.27516 l 17.5985,11.64455 c 9.67917,6.40451 20.57424,16.18613 24.21126,21.73693 3.63703,5.5508 19.79633,46.02984 35.90957,89.95343 16.11322,43.92358 32.29123,82.05066 35.95115,84.72684 4.68584,3.4264 62.96508,5.3918 197.01046,6.64395 178.21221,1.66473 190.9117,2.28094 199.06441,9.65906 8.54123,7.72969 8.7083,11.55092 8.7083,199.17333 0,143.13326 -1.28012,192.57254 -5.08474,196.37716 -7.37471,7.3747 -829.91341,7.3747 -837.288126,0 z"
   id="path16"
   inkscape:connector-curvature="0" /><path
   style="fill:#0000ff;stroke-width:2.20970869"
   d="m 735.7743,335.42066 c -93.17681,-0.64309 -169.93463,-1.69212 -170.57294,-2.33119 -1.25709,-1.25856 -14.67294,-36.99099 -14.67294,-39.0806 0,-0.69914 77.4325,-0.77448 172.07223,-0.16743 197.56594,1.26727 183.40137,-0.2855 196.39669,21.5297 3.94986,6.63061 7.18156,14.33696 7.18156,17.12524 0,4.6433 -0.88263,5.02856 -10.49612,4.58156 -5.77287,-0.26842 -86.73169,-1.0142 -179.90848,-1.65728 z"
   id="path18"
   inkscape:connector-curvature="0" /></svg>